<svg version="1" xmlns="http://www.w3.org/2000/svg" width="693.333" height="693.333" viewBox="0 0 520.000000 520.000000"><path d="M239 .6c-54.9 6.3-95.9 22.1-136.7 52.5-12.6 9.4-39.8 36.6-49.2 49.2-27 36.2-43.8 76.4-50.7 121.2-2.6 17-2.6 56 0 73 6.9 44.8 23.7 85 50.7 121.2 9.4 12.6 36.6 39.8 49.2 49.2 36.2 27 76.4 43.8 121.2 50.7 17 2.6 56 2.6 73 0 44.8-6.9 85-23.7 121.2-50.7 12.6-9.4 39.8-36.6 49.2-49.2 27-36.2 43.8-76.4 50.7-121.2 2.6-17 2.6-56 0-73-6.9-44.8-23.7-85-50.7-121.2-9.4-12.6-36.6-39.8-49.2-49.2-36-26.8-76.6-43.9-120.7-50.6-10-1.6-49.8-2.9-58-1.9zM111.6 185.5c2.8.8 7.4 3.2 10.4 5.2 11.5 8.1 17.3 20.1 16.8 34.9l-.3 7.9h-24l-.5-7.7c-.5-8.1-2-11.2-7.3-15.2-3.9-2.9-10.7-2.6-15 .7-6.7 5.1-6.8 5.6-6.5 45.1.3 34 .4 35.6 2.4 38.2 3.5 4.8 7 6.7 11.7 6.7 9.7 0 14.7-6.2 14.7-18V276H99v-24h40.2l-.4 22.3-.3 22.3-3.2 6.5c-4 8.1-11.3 15.6-19 19.5-5.3 2.6-6.7 2.9-16.3 2.9-9.3 0-11.2-.3-16.2-2.7-11.2-5.2-20.2-16.5-22.7-28.6-1.5-7.2-1.5-71.3 0-78.4 3-14.2 13.7-26.1 27.2-30.3 5.7-1.8 17.3-1.8 23.3 0zm97.9 2.9c15.8 7.8 25.8 26.5 22.6 42.4-1.4 7.1-5.1 14.7-9.2 19l-3.1 3.3 2.5 3.2c4 5.3 7.4 12.9 8.7 19.5 3.5 17.6-6.6 36.9-23.7 45.4l-6.7 3.3-23.8.3-23.8.3V184.9l25.3.3 25.2.3 6 2.9zM319 198.6l9.2 13.5 9.1-13.5 9.2-13.6 13.5.2 13.5.3.3 69.7.2 69.8h-25l-.2-51-.3-51-9.9 14.5c-5.5 8-10.2 14.5-10.5 14.5-.3-.1-4.9-6.5-10.1-14.2l-9.5-14.2-.5 50.4-.5 50.5-12.2.3-12.3.3V185h26.8l9.2 13.6zm137-1.6v12h-41v32h41v9.7c0 5.4.3 10.8.6 12l.6 2.3H415v36l20.8.2 20.7.3.3 11.7.3 11.8H390V185h66v12zM266.8 313.2l.3 11.8H242v-24.1l12.3.3 12.2.3.3 11.7z"/><path d="M178 225v16.2l9.3-.4c6.9-.3 10.2-.9 12.7-2.4 3.8-2.1 8-9.2 8-13.4 0-4.2-4.2-11.3-8-13.4-2.5-1.5-5.8-2.1-12.7-2.4l-9.3-.4V225zM178 283v18.3l8.5-.6c10.4-.6 15.1-3.2 18.4-9.9 4-8.3 1.6-17.5-5.9-22.4-3.5-2.3-5.5-2.8-12.6-3.2l-8.4-.5V283z"/></svg>